<?xml version="1.0" encoding="utf-8"?>
<!-- Generator: Adobe Illustrator 27.3.1, SVG Export Plug-In . SVG Version: 6.00 Build 0)  -->
<svg version="1.1" id="图层_1" xmlns="http://www.w3.org/2000/svg" xmlns:xlink="http://www.w3.org/1999/xlink" x="0px" y="0px"
	 width="300px" height="300px" viewBox="0 0 300 300" style="enable-background:new 0 0 300 300;" xml:space="preserve">
<style type="text/css">
	.st0{fill:#1677FF;}
	.st1{font-family:'Yekan-Iran-System';}
	.st2{font-size:28.2696px;}
	.st3{fill:#FFFFFF;}
	.st4{fill:url(#SVGID_1_);}
</style>
<g>
	<path class="st0" d="M256.4,296.1H43.6c-21.9,0-39.7-17.8-39.7-39.7V43.6c0-21.9,17.8-39.7,39.7-39.7h212.8
		c21.9,0,39.7,17.8,39.7,39.7v212.8C296.1,278.3,278.3,296.1,256.4,296.1z"/>
	<g>
		
			<image style="overflow:visible;opacity:0.5;" width="88" height="45" xlink:href="64F3F829.png"  transform="matrix(1 0 0 1 105.9338 232.9338)">
		</image>
		<g>
			<text transform="matrix(1 0 0 1 108.7464 259.78)" class="st1 st2">Bncr.js</text>
			<text transform="matrix(1 0 0 1 108.7464 259.78)" class="st3 st1 st2">Bncr.js</text>
		</g>
	</g>
	<g>
		
			<image style="overflow:visible;opacity:0.5;" width="236" height="133" xlink:href="64F3F82B.png"  transform="matrix(1 0 0 1 35 82)">
		</image>
		<g>
			<g>
				<g>
					<path class="st3" d="M201.6,202.6c-29.2,0-48.9-25.4-63.3-43.9l-2-2.6c-1.3-1.7-2.7-3.4-4-5.1c-13.6-17.6-22.5-28.5-33.9-28.5
						c-12.8,0-23.3,10.4-23.3,23.3H41.6C41.6,114.4,67,89,98.4,89c28.5,0,45.5,22.1,60.5,41.5c1.3,1.6,2.5,3.3,3.8,5l2.1,2.7
						c10.7,13.8,24,30.9,36.8,30.9c12.8,0,23.3-10.4,23.3-23.3h33.6C258.4,177.1,233,202.6,201.6,202.6z"/>
				</g>
				<linearGradient id="SVGID_1_" gradientUnits="userSpaceOnUse" x1="124.327" y1="120.2825" x2="174.7191" y2="170.6747">
					<stop  offset="0.1068" style="stop-color:#FFFFFF"/>
					<stop  offset="0.6099" style="stop-color:#808080"/>
					<stop  offset="0.9518" style="stop-color:#FFFFFF"/>
				</linearGradient>
				<path class="st4" d="M188.6,164c-8.5-6.1-16.7-16.7-23.8-25.8l-2.1-2.7c-1.3-1.7-2.6-3.3-3.8-5c-5.5-7.2-11.3-14.7-17.8-21.3
					l-23.7,23.7c4.5,4.7,9.3,10.8,15,18.1c1.3,1.7,2.6,3.4,4,5.1l2,2.6c7.3,9.4,15.9,20.5,26.4,29.2L188.6,164z"/>
				<g>
					<path class="st3" d="M98.4,202.6c-31.3,0-56.8-25.5-56.8-56.8h33.6c0,12.8,10.4,23.3,23.3,23.3c11.4,0,20.3-10.8,33.9-28.5
						c1.3-1.7,2.6-3.4,4-5.1l2-2.6c14.4-18.5,34-43.9,63.3-43.9c31.3,0,56.8,25.5,56.8,56.8h-33.6c0-12.8-10.4-23.3-23.3-23.3
						c-12.8,0-26.1,17.1-36.8,30.9l-2.1,2.7c-1.3,1.7-2.6,3.3-3.8,5C143.9,180.6,126.9,202.6,98.4,202.6z"/>
				</g>
			</g>
		</g>
	</g>
</g>
</svg>
